<mxfile host="app.diagrams.net" agent="Mozilla/5.0 (Windows NT 10.0; Win64; x64) AppleWebKit/537.36 (KHTML, like Gecko) Chrome/131.0.0.0 Safari/537.36" version="25.0.3" pages="4">
  <diagram id="C5RBs43oDa-KdzZeNtuy" name="Main">
    <mxGraphModel dx="1034" dy="446" grid="1" gridSize="10" guides="1" tooltips="1" connect="1" arrows="1" fold="1" page="1" pageScale="1" pageWidth="827" pageHeight="1169" math="0" shadow="0">
      <root>
        <mxCell id="WIyWlLk6GJQsqaUBKTNV-0" />
        <mxCell id="WIyWlLk6GJQsqaUBKTNV-1" parent="WIyWlLk6GJQsqaUBKTNV-0" />
        <mxCell id="WIyWlLk6GJQsqaUBKTNV-2" value="" style="rounded=0;html=1;jettySize=auto;orthogonalLoop=1;fontSize=11;endArrow=block;endFill=0;endSize=8;strokeWidth=1;shadow=0;labelBackgroundColor=none;edgeStyle=orthogonalEdgeStyle;" parent="WIyWlLk6GJQsqaUBKTNV-1" source="WIyWlLk6GJQsqaUBKTNV-3" target="WIyWlLk6GJQsqaUBKTNV-6" edge="1">
          <mxGeometry relative="1" as="geometry" />
        </mxCell>
        <mxCell id="WIyWlLk6GJQsqaUBKTNV-3" value="Lamp doesn&#39;t work" style="rounded=1;whiteSpace=wrap;html=1;fontSize=12;glass=0;strokeWidth=1;shadow=0;" parent="WIyWlLk6GJQsqaUBKTNV-1" vertex="1">
          <mxGeometry x="160" y="80" width="120" height="40" as="geometry" />
        </mxCell>
        <mxCell id="WIyWlLk6GJQsqaUBKTNV-4" value="Yes" style="rounded=0;html=1;jettySize=auto;orthogonalLoop=1;fontSize=11;endArrow=block;endFill=0;endSize=8;strokeWidth=1;shadow=0;labelBackgroundColor=none;edgeStyle=orthogonalEdgeStyle;" parent="WIyWlLk6GJQsqaUBKTNV-1" source="WIyWlLk6GJQsqaUBKTNV-6" target="WIyWlLk6GJQsqaUBKTNV-10" edge="1">
          <mxGeometry y="20" relative="1" as="geometry">
            <mxPoint as="offset" />
          </mxGeometry>
        </mxCell>
        <mxCell id="WIyWlLk6GJQsqaUBKTNV-5" value="No" style="edgeStyle=orthogonalEdgeStyle;rounded=0;html=1;jettySize=auto;orthogonalLoop=1;fontSize=11;endArrow=block;endFill=0;endSize=8;strokeWidth=1;shadow=0;labelBackgroundColor=none;" parent="WIyWlLk6GJQsqaUBKTNV-1" source="WIyWlLk6GJQsqaUBKTNV-6" target="WIyWlLk6GJQsqaUBKTNV-7" edge="1">
          <mxGeometry y="10" relative="1" as="geometry">
            <mxPoint as="offset" />
          </mxGeometry>
        </mxCell>
        <mxCell id="WIyWlLk6GJQsqaUBKTNV-6" value="Lamp&lt;br&gt;plugged in?" style="rhombus;whiteSpace=wrap;html=1;shadow=0;fontFamily=Helvetica;fontSize=12;align=center;strokeWidth=1;spacing=6;spacingTop=-4;" parent="WIyWlLk6GJQsqaUBKTNV-1" vertex="1">
          <mxGeometry x="170" y="170" width="100" height="80" as="geometry" />
        </mxCell>
        <mxCell id="WIyWlLk6GJQsqaUBKTNV-7" value="Plug in lamp" style="rounded=1;whiteSpace=wrap;html=1;fontSize=12;glass=0;strokeWidth=1;shadow=0;" parent="WIyWlLk6GJQsqaUBKTNV-1" vertex="1">
          <mxGeometry x="320" y="190" width="120" height="40" as="geometry" />
        </mxCell>
        <mxCell id="WIyWlLk6GJQsqaUBKTNV-8" value="No" style="rounded=0;html=1;jettySize=auto;orthogonalLoop=1;fontSize=11;endArrow=block;endFill=0;endSize=8;strokeWidth=1;shadow=0;labelBackgroundColor=none;edgeStyle=orthogonalEdgeStyle;" parent="WIyWlLk6GJQsqaUBKTNV-1" source="WIyWlLk6GJQsqaUBKTNV-10" target="WIyWlLk6GJQsqaUBKTNV-11" edge="1">
          <mxGeometry x="0.3333" y="20" relative="1" as="geometry">
            <mxPoint as="offset" />
          </mxGeometry>
        </mxCell>
        <mxCell id="WIyWlLk6GJQsqaUBKTNV-9" value="Yes" style="edgeStyle=orthogonalEdgeStyle;rounded=0;html=1;jettySize=auto;orthogonalLoop=1;fontSize=11;endArrow=block;endFill=0;endSize=8;strokeWidth=1;shadow=0;labelBackgroundColor=none;" parent="WIyWlLk6GJQsqaUBKTNV-1" source="WIyWlLk6GJQsqaUBKTNV-10" target="WIyWlLk6GJQsqaUBKTNV-12" edge="1">
          <mxGeometry y="10" relative="1" as="geometry">
            <mxPoint as="offset" />
          </mxGeometry>
        </mxCell>
        <mxCell id="WIyWlLk6GJQsqaUBKTNV-10" value="Bulb&lt;br&gt;burned out?" style="rhombus;whiteSpace=wrap;html=1;shadow=0;fontFamily=Helvetica;fontSize=12;align=center;strokeWidth=1;spacing=6;spacingTop=-4;" parent="WIyWlLk6GJQsqaUBKTNV-1" vertex="1">
          <mxGeometry x="170" y="290" width="100" height="80" as="geometry" />
        </mxCell>
        <mxCell id="WIyWlLk6GJQsqaUBKTNV-11" value="Repair Lamp" style="rounded=1;whiteSpace=wrap;html=1;fontSize=12;glass=0;strokeWidth=1;shadow=0;" parent="WIyWlLk6GJQsqaUBKTNV-1" vertex="1">
          <mxGeometry x="160" y="430" width="120" height="40" as="geometry" />
        </mxCell>
        <mxCell id="WIyWlLk6GJQsqaUBKTNV-12" value="Replace Bulb" style="rounded=1;whiteSpace=wrap;html=1;fontSize=12;glass=0;strokeWidth=1;shadow=0;" parent="WIyWlLk6GJQsqaUBKTNV-1" vertex="1">
          <mxGeometry x="320" y="310" width="120" height="40" as="geometry" />
        </mxCell>
      </root>
    </mxGraphModel>
  </diagram>
  <diagram id="J32Xbh-iPIe8DLkKtz8P" name="tambahMatrix">
    <mxGraphModel dx="521" dy="522" grid="1" gridSize="10" guides="1" tooltips="1" connect="1" arrows="1" fold="1" page="1" pageScale="1" pageWidth="827" pageHeight="1169" math="0" shadow="0">
      <root>
        <mxCell id="0" />
        <mxCell id="1" parent="0" />
        <mxCell id="n_PICepRB-7vga4QmUEw-45" value="" style="group" parent="1" vertex="1" connectable="0">
          <mxGeometry x="50" y="50" width="290" height="730" as="geometry" />
        </mxCell>
        <mxCell id="n_PICepRB-7vga4QmUEw-6" value="" style="edgeStyle=orthogonalEdgeStyle;rounded=0;orthogonalLoop=1;jettySize=auto;html=1;" parent="n_PICepRB-7vga4QmUEw-45" source="n_PICepRB-7vga4QmUEw-1" edge="1">
          <mxGeometry relative="1" as="geometry">
            <mxPoint x="126.875" y="63.636363636363626" as="targetPoint" />
          </mxGeometry>
        </mxCell>
        <mxCell id="n_PICepRB-7vga4QmUEw-1" value="tambahMatrix()" style="ellipse;whiteSpace=wrap;html=1;" parent="n_PICepRB-7vga4QmUEw-45" vertex="1">
          <mxGeometry x="81.66999999999999" y="-10" width="91.04" height="40" as="geometry" />
        </mxCell>
        <mxCell id="n_PICepRB-7vga4QmUEw-8" value="" style="edgeStyle=orthogonalEdgeStyle;rounded=0;orthogonalLoop=1;jettySize=auto;html=1;" parent="n_PICepRB-7vga4QmUEw-45" target="n_PICepRB-7vga4QmUEw-7" edge="1">
          <mxGeometry relative="1" as="geometry">
            <mxPoint x="126.875" y="106.06060606060603" as="sourcePoint" />
          </mxGeometry>
        </mxCell>
        <mxCell id="n_PICepRB-7vga4QmUEw-5" value="&lt;div&gt;int baris = matriks1.length;&lt;/div&gt;&lt;div&gt;&lt;span style=&quot;background-color: initial;&quot;&gt;int kolom = matriks1[0].length;&lt;/span&gt;&lt;/div&gt;&lt;div&gt;&lt;span style=&quot;background-color: initial;&quot;&gt;int[][] hasil = new int[baris][kolom];&lt;/span&gt;&lt;/div&gt;" style="shape=hexagon;perimeter=hexagonPerimeter2;whiteSpace=wrap;html=1;fixedSize=1;" parent="n_PICepRB-7vga4QmUEw-45" vertex="1">
          <mxGeometry x="10.670000000000002" y="63.64" width="232.4" height="42.42" as="geometry" />
        </mxCell>
        <mxCell id="n_PICepRB-7vga4QmUEw-10" value="" style="edgeStyle=orthogonalEdgeStyle;rounded=0;orthogonalLoop=1;jettySize=auto;html=1;" parent="n_PICepRB-7vga4QmUEw-45" source="n_PICepRB-7vga4QmUEw-7" target="n_PICepRB-7vga4QmUEw-9" edge="1">
          <mxGeometry relative="1" as="geometry" />
        </mxCell>
        <mxCell id="n_PICepRB-7vga4QmUEw-7" value="i = 0" style="whiteSpace=wrap;html=1;" parent="n_PICepRB-7vga4QmUEw-45" vertex="1">
          <mxGeometry x="107.1875" y="141.4141414141414" width="39.375" height="21.21212121212121" as="geometry" />
        </mxCell>
        <mxCell id="n_PICepRB-7vga4QmUEw-14" value="" style="edgeStyle=orthogonalEdgeStyle;rounded=0;orthogonalLoop=1;jettySize=auto;html=1;" parent="n_PICepRB-7vga4QmUEw-45" source="n_PICepRB-7vga4QmUEw-9" target="n_PICepRB-7vga4QmUEw-13" edge="1">
          <mxGeometry relative="1" as="geometry" />
        </mxCell>
        <mxCell id="n_PICepRB-7vga4QmUEw-37" value="" style="edgeStyle=orthogonalEdgeStyle;rounded=0;orthogonalLoop=1;jettySize=auto;html=1;entryX=1;entryY=0.5;entryDx=0;entryDy=0;" parent="n_PICepRB-7vga4QmUEw-45" source="n_PICepRB-7vga4QmUEw-9" target="n_PICepRB-7vga4QmUEw-35" edge="1">
          <mxGeometry relative="1" as="geometry">
            <mxPoint x="367.5" y="473.7373737373738" as="targetPoint" />
            <Array as="points">
              <mxPoint x="280" y="219.19191919191917" />
              <mxPoint x="280" y="516.1616161616162" />
            </Array>
          </mxGeometry>
        </mxCell>
        <mxCell id="n_PICepRB-7vga4QmUEw-9" value="i &amp;lt; baris" style="rhombus;whiteSpace=wrap;html=1;" parent="n_PICepRB-7vga4QmUEw-45" vertex="1">
          <mxGeometry x="81.66666666666667" y="190.90909090909088" width="90.41666666666667" height="56.56565656565655" as="geometry" />
        </mxCell>
        <mxCell id="n_PICepRB-7vga4QmUEw-18" value="" style="edgeStyle=orthogonalEdgeStyle;rounded=0;orthogonalLoop=1;jettySize=auto;html=1;" parent="n_PICepRB-7vga4QmUEw-45" source="n_PICepRB-7vga4QmUEw-13" target="n_PICepRB-7vga4QmUEw-17" edge="1">
          <mxGeometry relative="1" as="geometry" />
        </mxCell>
        <mxCell id="n_PICepRB-7vga4QmUEw-13" value="j = 0" style="whiteSpace=wrap;html=1;" parent="n_PICepRB-7vga4QmUEw-45" vertex="1">
          <mxGeometry x="107.1875" y="275.75757575757575" width="39.375" height="21.21212121212121" as="geometry" />
        </mxCell>
        <mxCell id="n_PICepRB-7vga4QmUEw-20" value="" style="edgeStyle=orthogonalEdgeStyle;rounded=0;orthogonalLoop=1;jettySize=auto;html=1;" parent="n_PICepRB-7vga4QmUEw-45" source="n_PICepRB-7vga4QmUEw-17" edge="1">
          <mxGeometry relative="1" as="geometry">
            <mxPoint x="126.875" y="424.24242424242414" as="targetPoint" />
          </mxGeometry>
        </mxCell>
        <mxCell id="n_PICepRB-7vga4QmUEw-27" value="" style="edgeStyle=orthogonalEdgeStyle;rounded=0;orthogonalLoop=1;jettySize=auto;html=1;entryX=0.5;entryY=1;entryDx=0;entryDy=0;" parent="n_PICepRB-7vga4QmUEw-45" source="n_PICepRB-7vga4QmUEw-17" target="n_PICepRB-7vga4QmUEw-25" edge="1">
          <mxGeometry relative="1" as="geometry">
            <mxPoint x="35" y="360.60606060606057" as="targetPoint" />
          </mxGeometry>
        </mxCell>
        <mxCell id="n_PICepRB-7vga4QmUEw-17" value="j &amp;lt; kolom" style="rhombus;whiteSpace=wrap;html=1;" parent="n_PICepRB-7vga4QmUEw-45" vertex="1">
          <mxGeometry x="81.66666666666667" y="332.3232323232323" width="90.41666666666667" height="56.56565656565655" as="geometry" />
        </mxCell>
        <mxCell id="n_PICepRB-7vga4QmUEw-19" value="hasil[i][j] = matriks1[i][j] + matriks2[i][j];" style="whiteSpace=wrap;html=1;" parent="n_PICepRB-7vga4QmUEw-45" vertex="1">
          <mxGeometry x="31.090000000000003" y="424.24" width="206.15" height="42.42" as="geometry" />
        </mxCell>
        <mxCell id="n_PICepRB-7vga4QmUEw-24" value="" style="edgeStyle=orthogonalEdgeStyle;rounded=0;orthogonalLoop=1;jettySize=auto;html=1;" parent="n_PICepRB-7vga4QmUEw-45" source="n_PICepRB-7vga4QmUEw-23" target="n_PICepRB-7vga4QmUEw-17" edge="1">
          <mxGeometry relative="1" as="geometry" />
        </mxCell>
        <mxCell id="n_PICepRB-7vga4QmUEw-23" value="j++" style="whiteSpace=wrap;html=1;" parent="n_PICepRB-7vga4QmUEw-45" vertex="1">
          <mxGeometry x="230.6266666666667" y="350" width="39.375" height="21.21212121212121" as="geometry" />
        </mxCell>
        <mxCell id="n_PICepRB-7vga4QmUEw-28" value="" style="edgeStyle=orthogonalEdgeStyle;rounded=0;orthogonalLoop=1;jettySize=auto;html=1;" parent="n_PICepRB-7vga4QmUEw-45" source="n_PICepRB-7vga4QmUEw-25" target="n_PICepRB-7vga4QmUEw-9" edge="1">
          <mxGeometry relative="1" as="geometry" />
        </mxCell>
        <mxCell id="n_PICepRB-7vga4QmUEw-25" value="i++" style="whiteSpace=wrap;html=1;" parent="n_PICepRB-7vga4QmUEw-45" vertex="1">
          <mxGeometry y="208.58585858585857" width="39.375" height="21.21212121212121" as="geometry" />
        </mxCell>
        <mxCell id="n_PICepRB-7vga4QmUEw-29" value="T" style="text;html=1;align=center;verticalAlign=middle;whiteSpace=wrap;rounded=0;" parent="n_PICepRB-7vga4QmUEw-45" vertex="1">
          <mxGeometry x="122.5" y="247.47474747474746" width="35" height="21.21212121212121" as="geometry" />
        </mxCell>
        <mxCell id="n_PICepRB-7vga4QmUEw-30" value="T" style="text;html=1;align=center;verticalAlign=middle;whiteSpace=wrap;rounded=0;" parent="n_PICepRB-7vga4QmUEw-45" vertex="1">
          <mxGeometry x="116.66666666666667" y="388.88888888888886" width="35" height="21.21212121212121" as="geometry" />
        </mxCell>
        <mxCell id="n_PICepRB-7vga4QmUEw-31" value="F" style="text;html=1;align=center;verticalAlign=middle;whiteSpace=wrap;rounded=0;" parent="n_PICepRB-7vga4QmUEw-45" vertex="1">
          <mxGeometry x="52.5" y="339.3939393939394" width="35" height="21.21212121212121" as="geometry" />
        </mxCell>
        <mxCell id="n_PICepRB-7vga4QmUEw-34" value="F" style="text;html=1;align=center;verticalAlign=middle;whiteSpace=wrap;rounded=0;" parent="n_PICepRB-7vga4QmUEw-45" vertex="1">
          <mxGeometry x="177.33333333333334" y="190.90909090909088" width="35" height="21.21212121212121" as="geometry" />
        </mxCell>
        <mxCell id="n_PICepRB-7vga4QmUEw-39" value="" style="edgeStyle=orthogonalEdgeStyle;rounded=0;orthogonalLoop=1;jettySize=auto;html=1;entryX=0.5;entryY=0;entryDx=0;entryDy=0;" parent="n_PICepRB-7vga4QmUEw-45" source="n_PICepRB-7vga4QmUEw-35" target="n_PICepRB-7vga4QmUEw-40" edge="1">
          <mxGeometry relative="1" as="geometry">
            <mxPoint x="126.51041666666667" y="586.8686868686868" as="targetPoint" />
          </mxGeometry>
        </mxCell>
        <mxCell id="n_PICepRB-7vga4QmUEw-35" value="print &quot;Hasil pertambahan matriks&quot;" style="shape=parallelogram;perimeter=parallelogramPerimeter;whiteSpace=wrap;html=1;fixedSize=1;" parent="n_PICepRB-7vga4QmUEw-45" vertex="1">
          <mxGeometry x="23.13" y="490" width="207.5" height="55.05" as="geometry" />
        </mxCell>
        <mxCell id="n_PICepRB-7vga4QmUEw-44" value="" style="edgeStyle=orthogonalEdgeStyle;rounded=0;orthogonalLoop=1;jettySize=auto;html=1;" parent="n_PICepRB-7vga4QmUEw-45" source="n_PICepRB-7vga4QmUEw-40" target="n_PICepRB-7vga4QmUEw-43" edge="1">
          <mxGeometry relative="1" as="geometry" />
        </mxCell>
        <mxCell id="n_PICepRB-7vga4QmUEw-40" value="i = 0" style="whiteSpace=wrap;html=1;" parent="n_PICepRB-7vga4QmUEw-45" vertex="1">
          <mxGeometry x="107.1875" y="579.7979797979797" width="39.375" height="21.21212121212121" as="geometry" />
        </mxCell>
        <mxCell id="n_PICepRB-7vga4QmUEw-43" value="i &amp;lt; baris" style="rhombus;whiteSpace=wrap;html=1;" parent="n_PICepRB-7vga4QmUEw-45" vertex="1">
          <mxGeometry x="81.66666666666667" y="643.4343434343434" width="90.41666666666667" height="56.56565656565655" as="geometry" />
        </mxCell>
        <mxCell id="n_PICepRB-7vga4QmUEw-47" value="" style="edgeStyle=orthogonalEdgeStyle;rounded=0;orthogonalLoop=1;jettySize=auto;html=1;entryX=0.5;entryY=1;entryDx=0;entryDy=0;exitX=1;exitY=0.5;exitDx=0;exitDy=0;" parent="n_PICepRB-7vga4QmUEw-45" source="n_PICepRB-7vga4QmUEw-19" target="n_PICepRB-7vga4QmUEw-23" edge="1">
          <mxGeometry relative="1" as="geometry">
            <mxPoint x="360.31500000000005" y="445.5185185185185" as="targetPoint" />
            <Array as="points">
              <mxPoint x="250" y="445" />
            </Array>
          </mxGeometry>
        </mxCell>
        <mxCell id="qXJtQInTQcKugstmX2LF-1" value="T" style="text;html=1;align=center;verticalAlign=middle;whiteSpace=wrap;rounded=0;" parent="n_PICepRB-7vga4QmUEw-45" vertex="1">
          <mxGeometry x="129.79666666666668" y="699.9988888888888" width="35" height="21.21212121212121" as="geometry" />
        </mxCell>
        <mxCell id="qXJtQInTQcKugstmX2LF-16" value="" style="edgeStyle=orthogonalEdgeStyle;rounded=0;orthogonalLoop=1;jettySize=auto;html=1;entryX=0;entryY=0.5;entryDx=0;entryDy=0;" parent="n_PICepRB-7vga4QmUEw-45" source="qXJtQInTQcKugstmX2LF-13" target="n_PICepRB-7vga4QmUEw-43" edge="1">
          <mxGeometry relative="1" as="geometry" />
        </mxCell>
        <mxCell id="qXJtQInTQcKugstmX2LF-13" value="i++" style="rounded=0;whiteSpace=wrap;html=1;" parent="n_PICepRB-7vga4QmUEw-45" vertex="1">
          <mxGeometry x="-15.150000000000006" y="661.72" width="38.28" height="20" as="geometry" />
        </mxCell>
        <mxCell id="qXJtQInTQcKugstmX2LF-17" value="F" style="text;html=1;align=center;verticalAlign=middle;whiteSpace=wrap;rounded=0;" parent="n_PICepRB-7vga4QmUEw-45" vertex="1">
          <mxGeometry x="189.99666666666667" y="643.4388888888889" width="35" height="21.21212121212121" as="geometry" />
        </mxCell>
        <mxCell id="n_PICepRB-7vga4QmUEw-49" value="" style="edgeStyle=orthogonalEdgeStyle;rounded=0;orthogonalLoop=1;jettySize=auto;html=1;" parent="1" source="n_PICepRB-7vga4QmUEw-43" edge="1">
          <mxGeometry relative="1" as="geometry">
            <mxPoint x="177" y="800" as="targetPoint" />
          </mxGeometry>
        </mxCell>
        <mxCell id="n_PICepRB-7vga4QmUEw-82" value="" style="edgeStyle=orthogonalEdgeStyle;rounded=0;orthogonalLoop=1;jettySize=auto;html=1;" parent="1" source="n_PICepRB-7vga4QmUEw-80" target="n_PICepRB-7vga4QmUEw-81" edge="1">
          <mxGeometry relative="1" as="geometry" />
        </mxCell>
        <mxCell id="n_PICepRB-7vga4QmUEw-80" value="j = 0" style="rounded=0;whiteSpace=wrap;html=1;" parent="1" vertex="1">
          <mxGeometry x="158.28" y="800" width="38.28" height="20" as="geometry" />
        </mxCell>
        <mxCell id="qXJtQInTQcKugstmX2LF-3" value="" style="edgeStyle=orthogonalEdgeStyle;rounded=0;orthogonalLoop=1;jettySize=auto;html=1;" parent="1" source="n_PICepRB-7vga4QmUEw-81" target="qXJtQInTQcKugstmX2LF-2" edge="1">
          <mxGeometry relative="1" as="geometry" />
        </mxCell>
        <mxCell id="qXJtQInTQcKugstmX2LF-15" value="" style="edgeStyle=orthogonalEdgeStyle;rounded=0;orthogonalLoop=1;jettySize=auto;html=1;entryX=0.5;entryY=1;entryDx=0;entryDy=0;" parent="1" source="n_PICepRB-7vga4QmUEw-81" target="qXJtQInTQcKugstmX2LF-13" edge="1">
          <mxGeometry relative="1" as="geometry">
            <mxPoint x="47.42000000000007" y="888.2849999999999" as="targetPoint" />
          </mxGeometry>
        </mxCell>
        <mxCell id="n_PICepRB-7vga4QmUEw-81" value="j &amp;lt; kolom" style="rhombus;whiteSpace=wrap;html=1;rounded=0;" parent="1" vertex="1">
          <mxGeometry x="127.42" y="860" width="100" height="56.57" as="geometry" />
        </mxCell>
        <mxCell id="qXJtQInTQcKugstmX2LF-11" value="" style="edgeStyle=orthogonalEdgeStyle;rounded=0;orthogonalLoop=1;jettySize=auto;html=1;" parent="1" source="qXJtQInTQcKugstmX2LF-2" edge="1">
          <mxGeometry relative="1" as="geometry">
            <mxPoint x="320" y="900" as="targetPoint" />
          </mxGeometry>
        </mxCell>
        <mxCell id="qXJtQInTQcKugstmX2LF-2" value="print hasil[i][j] + &quot; &quot;" style="shape=parallelogram;perimeter=parallelogramPerimeter;whiteSpace=wrap;html=1;fixedSize=1;rounded=0;" parent="1" vertex="1">
          <mxGeometry x="91.13" y="970" width="172.58" height="45.14" as="geometry" />
        </mxCell>
        <mxCell id="qXJtQInTQcKugstmX2LF-4" value="T" style="text;html=1;align=center;verticalAlign=middle;whiteSpace=wrap;rounded=0;" parent="1" vertex="1">
          <mxGeometry x="177.49666666666667" y="916.5688888888889" width="35" height="21.21212121212121" as="geometry" />
        </mxCell>
        <mxCell id="qXJtQInTQcKugstmX2LF-7" value="return void" style="ellipse;whiteSpace=wrap;html=1;" parent="1" vertex="1">
          <mxGeometry x="127.41999999999999" y="1040" width="104" height="58.28" as="geometry" />
        </mxCell>
        <mxCell id="qXJtQInTQcKugstmX2LF-12" value="" style="edgeStyle=orthogonalEdgeStyle;rounded=0;orthogonalLoop=1;jettySize=auto;html=1;entryX=1;entryY=0.5;entryDx=0;entryDy=0;" parent="1" source="qXJtQInTQcKugstmX2LF-9" target="n_PICepRB-7vga4QmUEw-81" edge="1">
          <mxGeometry relative="1" as="geometry">
            <mxPoint x="230" y="890" as="targetPoint" />
          </mxGeometry>
        </mxCell>
        <mxCell id="qXJtQInTQcKugstmX2LF-9" value="j++" style="rounded=0;whiteSpace=wrap;html=1;" parent="1" vertex="1">
          <mxGeometry x="301.72" y="878.28" width="38.28" height="20" as="geometry" />
        </mxCell>
        <mxCell id="qXJtQInTQcKugstmX2LF-18" value="F" style="text;html=1;align=center;verticalAlign=middle;whiteSpace=wrap;rounded=0;" parent="1" vertex="1">
          <mxGeometry x="96.66666666666666" y="859.9988888888888" width="35" height="21.21212121212121" as="geometry" />
        </mxCell>
        <mxCell id="qXJtQInTQcKugstmX2LF-19" value="" style="edgeStyle=orthogonalEdgeStyle;rounded=0;orthogonalLoop=1;jettySize=auto;html=1;entryX=1;entryY=0.5;entryDx=0;entryDy=0;" parent="1" source="n_PICepRB-7vga4QmUEw-43" target="qXJtQInTQcKugstmX2LF-7" edge="1">
          <mxGeometry relative="1" as="geometry">
            <mxPoint x="410" y="1070" as="targetPoint" />
            <Array as="points">
              <mxPoint x="360" y="722" />
              <mxPoint x="360" y="1069" />
            </Array>
          </mxGeometry>
        </mxCell>
      </root>
    </mxGraphModel>
  </diagram>
  <diagram id="DMCiHAHNi1BH-J8MthVY" name="kaliMatrix">
    <mxGraphModel dx="868" dy="870" grid="1" gridSize="10" guides="1" tooltips="1" connect="1" arrows="1" fold="1" page="1" pageScale="1" pageWidth="827" pageHeight="1169" math="0" shadow="0">
      <root>
        <mxCell id="0" />
        <mxCell id="1" parent="0" />
        <mxCell id="ke5M0Iijm5WjqGrnIJjf-8" value="" style="edgeStyle=orthogonalEdgeStyle;rounded=0;orthogonalLoop=1;jettySize=auto;html=1;" parent="1" source="zNPARhhmZOysiZaS4j3t-1" target="zNPARhhmZOysiZaS4j3t-2" edge="1">
          <mxGeometry relative="1" as="geometry" />
        </mxCell>
        <mxCell id="zNPARhhmZOysiZaS4j3t-1" value="kaliMatriks()" style="ellipse;whiteSpace=wrap;html=1;" parent="1" vertex="1">
          <mxGeometry x="323" y="30" width="181" height="50" as="geometry" />
        </mxCell>
        <mxCell id="ke5M0Iijm5WjqGrnIJjf-10" style="edgeStyle=orthogonalEdgeStyle;rounded=0;orthogonalLoop=1;jettySize=auto;html=1;entryX=0.5;entryY=0;entryDx=0;entryDy=0;" parent="1" source="zNPARhhmZOysiZaS4j3t-2" target="ke5M0Iijm5WjqGrnIJjf-1" edge="1">
          <mxGeometry relative="1" as="geometry" />
        </mxCell>
        <mxCell id="zNPARhhmZOysiZaS4j3t-2" value="int baris1 = matriks1.length;&lt;div&gt;int kolom1 = matriks[0].length;&lt;/div&gt;&lt;div&gt;int baris2 = matriks2.length;&lt;/div&gt;&lt;div&gt;int kolom3 = matriks[0].length&lt;/div&gt;&lt;div&gt;&lt;span style=&quot;background-color: initial;&quot;&gt;int[][] hasil = new int[baris1][kolom2]&lt;/span&gt;&lt;/div&gt;" style="shape=hexagon;perimeter=hexagonPerimeter2;whiteSpace=wrap;html=1;fixedSize=1;" parent="1" vertex="1">
          <mxGeometry x="264" y="110" width="300" height="80" as="geometry" />
        </mxCell>
        <mxCell id="ke5M0Iijm5WjqGrnIJjf-11" style="edgeStyle=orthogonalEdgeStyle;rounded=0;orthogonalLoop=1;jettySize=auto;html=1;entryX=0.5;entryY=0;entryDx=0;entryDy=0;" parent="1" source="ke5M0Iijm5WjqGrnIJjf-1" target="ke5M0Iijm5WjqGrnIJjf-2" edge="1">
          <mxGeometry relative="1" as="geometry" />
        </mxCell>
        <mxCell id="ke5M0Iijm5WjqGrnIJjf-1" value="i = 0" style="rounded=0;whiteSpace=wrap;html=1;" parent="1" vertex="1">
          <mxGeometry x="379" y="230" width="70" height="30" as="geometry" />
        </mxCell>
        <mxCell id="ke5M0Iijm5WjqGrnIJjf-12" style="edgeStyle=orthogonalEdgeStyle;rounded=0;orthogonalLoop=1;jettySize=auto;html=1;entryX=0.5;entryY=0;entryDx=0;entryDy=0;" parent="1" source="ke5M0Iijm5WjqGrnIJjf-2" target="ke5M0Iijm5WjqGrnIJjf-3" edge="1">
          <mxGeometry relative="1" as="geometry" />
        </mxCell>
        <mxCell id="ke5M0Iijm5WjqGrnIJjf-42" style="edgeStyle=orthogonalEdgeStyle;rounded=0;orthogonalLoop=1;jettySize=auto;html=1;entryX=0;entryY=0.5;entryDx=0;entryDy=0;" parent="1" source="ke5M0Iijm5WjqGrnIJjf-2" target="ke5M0Iijm5WjqGrnIJjf-26" edge="1">
          <mxGeometry relative="1" as="geometry">
            <Array as="points">
              <mxPoint x="250" y="335" />
              <mxPoint x="250" y="845" />
            </Array>
          </mxGeometry>
        </mxCell>
        <mxCell id="ke5M0Iijm5WjqGrnIJjf-2" value="i &amp;lt; baris1" style="rhombus;whiteSpace=wrap;html=1;" parent="1" vertex="1">
          <mxGeometry x="377" y="300" width="74" height="70" as="geometry" />
        </mxCell>
        <mxCell id="ke5M0Iijm5WjqGrnIJjf-13" style="edgeStyle=orthogonalEdgeStyle;rounded=0;orthogonalLoop=1;jettySize=auto;html=1;entryX=0.5;entryY=0;entryDx=0;entryDy=0;" parent="1" source="ke5M0Iijm5WjqGrnIJjf-3" target="ke5M0Iijm5WjqGrnIJjf-4" edge="1">
          <mxGeometry relative="1" as="geometry" />
        </mxCell>
        <mxCell id="ke5M0Iijm5WjqGrnIJjf-3" value="j = 0" style="rounded=0;whiteSpace=wrap;html=1;" parent="1" vertex="1">
          <mxGeometry x="379" y="410" width="70" height="30" as="geometry" />
        </mxCell>
        <mxCell id="ke5M0Iijm5WjqGrnIJjf-15" style="edgeStyle=orthogonalEdgeStyle;rounded=0;orthogonalLoop=1;jettySize=auto;html=1;entryX=0.5;entryY=0;entryDx=0;entryDy=0;" parent="1" source="ke5M0Iijm5WjqGrnIJjf-4" target="ke5M0Iijm5WjqGrnIJjf-5" edge="1">
          <mxGeometry relative="1" as="geometry" />
        </mxCell>
        <mxCell id="ke5M0Iijm5WjqGrnIJjf-25" style="edgeStyle=orthogonalEdgeStyle;rounded=0;orthogonalLoop=1;jettySize=auto;html=1;entryX=1;entryY=0.5;entryDx=0;entryDy=0;" parent="1" source="ke5M0Iijm5WjqGrnIJjf-4" edge="1" target="ke5M0Iijm5WjqGrnIJjf-2">
          <mxGeometry relative="1" as="geometry">
            <mxPoint x="460" y="330" as="targetPoint" />
            <Array as="points">
              <mxPoint x="510" y="515" />
              <mxPoint x="510" y="335" />
            </Array>
          </mxGeometry>
        </mxCell>
        <mxCell id="ke5M0Iijm5WjqGrnIJjf-4" value="j &amp;lt; kolom2" style="rhombus;whiteSpace=wrap;html=1;" parent="1" vertex="1">
          <mxGeometry x="377" y="480" width="74" height="70" as="geometry" />
        </mxCell>
        <mxCell id="ke5M0Iijm5WjqGrnIJjf-16" value="" style="edgeStyle=orthogonalEdgeStyle;rounded=0;orthogonalLoop=1;jettySize=auto;html=1;" parent="1" source="ke5M0Iijm5WjqGrnIJjf-5" target="ke5M0Iijm5WjqGrnIJjf-6" edge="1">
          <mxGeometry relative="1" as="geometry" />
        </mxCell>
        <mxCell id="ke5M0Iijm5WjqGrnIJjf-5" value="k = 0" style="rounded=0;whiteSpace=wrap;html=1;" parent="1" vertex="1">
          <mxGeometry x="379" y="590" width="70" height="30" as="geometry" />
        </mxCell>
        <mxCell id="ke5M0Iijm5WjqGrnIJjf-17" value="" style="edgeStyle=orthogonalEdgeStyle;rounded=0;orthogonalLoop=1;jettySize=auto;html=1;" parent="1" source="ke5M0Iijm5WjqGrnIJjf-6" target="ke5M0Iijm5WjqGrnIJjf-7" edge="1">
          <mxGeometry relative="1" as="geometry" />
        </mxCell>
        <mxCell id="ke5M0Iijm5WjqGrnIJjf-21" style="edgeStyle=orthogonalEdgeStyle;rounded=0;orthogonalLoop=1;jettySize=auto;html=1;entryX=0;entryY=0.5;entryDx=0;entryDy=0;" parent="1" source="ke5M0Iijm5WjqGrnIJjf-22" edge="1" target="ke5M0Iijm5WjqGrnIJjf-4">
          <mxGeometry relative="1" as="geometry">
            <mxPoint x="414" y="460" as="targetPoint" />
            <Array as="points">
              <mxPoint x="320" y="515" />
            </Array>
          </mxGeometry>
        </mxCell>
        <mxCell id="ke5M0Iijm5WjqGrnIJjf-6" value="k &amp;lt; kolom1" style="rhombus;whiteSpace=wrap;html=1;" parent="1" vertex="1">
          <mxGeometry x="377" y="660" width="74" height="70" as="geometry" />
        </mxCell>
        <mxCell id="ke5M0Iijm5WjqGrnIJjf-20" style="edgeStyle=orthogonalEdgeStyle;rounded=0;orthogonalLoop=1;jettySize=auto;html=1;entryX=1;entryY=0.5;entryDx=0;entryDy=0;" parent="1" source="ke5M0Iijm5WjqGrnIJjf-7" edge="1" target="ke5M0Iijm5WjqGrnIJjf-6">
          <mxGeometry relative="1" as="geometry">
            <mxPoint x="414" y="640" as="targetPoint" />
            <Array as="points">
              <mxPoint x="530" y="780" />
              <mxPoint x="530" y="695" />
            </Array>
          </mxGeometry>
        </mxCell>
        <mxCell id="ke5M0Iijm5WjqGrnIJjf-7" value="hasil[i][j] +=&amp;nbsp;&lt;div&gt;matriks1[i][k] * matriks2[k][j]&lt;/div&gt;" style="rounded=0;whiteSpace=wrap;html=1;" parent="1" vertex="1">
          <mxGeometry x="332" y="760" width="164" height="40" as="geometry" />
        </mxCell>
        <mxCell id="ke5M0Iijm5WjqGrnIJjf-18" value="k++" style="rounded=0;whiteSpace=wrap;html=1;" parent="1" vertex="1">
          <mxGeometry x="496" y="680" width="70" height="30" as="geometry" />
        </mxCell>
        <mxCell id="ke5M0Iijm5WjqGrnIJjf-23" value="" style="edgeStyle=orthogonalEdgeStyle;rounded=0;orthogonalLoop=1;jettySize=auto;html=1;entryX=0;entryY=0.5;entryDx=0;entryDy=0;" parent="1" source="ke5M0Iijm5WjqGrnIJjf-6" target="ke5M0Iijm5WjqGrnIJjf-22" edge="1">
          <mxGeometry relative="1" as="geometry">
            <mxPoint x="377" y="695" as="sourcePoint" />
            <mxPoint x="377" y="515" as="targetPoint" />
            <Array as="points">
              <mxPoint x="320" y="695" />
            </Array>
          </mxGeometry>
        </mxCell>
        <mxCell id="ke5M0Iijm5WjqGrnIJjf-22" value="j = 0" style="rounded=0;whiteSpace=wrap;html=1;" parent="1" vertex="1">
          <mxGeometry x="287" y="551" width="70" height="30" as="geometry" />
        </mxCell>
        <mxCell id="ke5M0Iijm5WjqGrnIJjf-24" value="i++" style="rounded=0;whiteSpace=wrap;html=1;" parent="1" vertex="1">
          <mxGeometry x="475" y="370" width="70" height="30" as="geometry" />
        </mxCell>
        <mxCell id="ke5M0Iijm5WjqGrnIJjf-47" style="edgeStyle=orthogonalEdgeStyle;rounded=0;orthogonalLoop=1;jettySize=auto;html=1;entryX=0.5;entryY=0;entryDx=0;entryDy=0;" parent="1" source="ke5M0Iijm5WjqGrnIJjf-26" target="ke5M0Iijm5WjqGrnIJjf-41" edge="1">
          <mxGeometry relative="1" as="geometry" />
        </mxCell>
        <mxCell id="ke5M0Iijm5WjqGrnIJjf-26" value="print &quot;Hasil perkalan matriks :&quot;" style="shape=parallelogram;perimeter=parallelogramPerimeter;whiteSpace=wrap;html=1;fixedSize=1;" parent="1" vertex="1">
          <mxGeometry x="316" y="830" width="196" height="30" as="geometry" />
        </mxCell>
        <mxCell id="ke5M0Iijm5WjqGrnIJjf-50" style="edgeStyle=orthogonalEdgeStyle;rounded=0;orthogonalLoop=1;jettySize=auto;html=1;entryX=0.5;entryY=0;entryDx=0;entryDy=0;" parent="1" source="ke5M0Iijm5WjqGrnIJjf-41" target="ke5M0Iijm5WjqGrnIJjf-43" edge="1">
          <mxGeometry relative="1" as="geometry" />
        </mxCell>
        <mxCell id="ke5M0Iijm5WjqGrnIJjf-41" value="i = 0" style="rounded=0;whiteSpace=wrap;html=1;" parent="1" vertex="1">
          <mxGeometry x="379" y="893" width="70" height="30" as="geometry" />
        </mxCell>
        <mxCell id="ke5M0Iijm5WjqGrnIJjf-51" style="edgeStyle=orthogonalEdgeStyle;rounded=0;orthogonalLoop=1;jettySize=auto;html=1;entryX=0.5;entryY=0;entryDx=0;entryDy=0;" parent="1" source="ke5M0Iijm5WjqGrnIJjf-43" target="ke5M0Iijm5WjqGrnIJjf-44" edge="1">
          <mxGeometry relative="1" as="geometry" />
        </mxCell>
        <mxCell id="HW7N_w8-_M8KDKrPppuq-18" value="" style="edgeStyle=orthogonalEdgeStyle;rounded=0;orthogonalLoop=1;jettySize=auto;html=1;entryX=1;entryY=0.5;entryDx=0;entryDy=0;" edge="1" parent="1" source="ke5M0Iijm5WjqGrnIJjf-43" target="HW7N_w8-_M8KDKrPppuq-19">
          <mxGeometry relative="1" as="geometry">
            <mxPoint x="536.5" y="985" as="targetPoint" />
            <Array as="points">
              <mxPoint x="640" y="985" />
              <mxPoint x="640" y="1295" />
            </Array>
          </mxGeometry>
        </mxCell>
        <mxCell id="ke5M0Iijm5WjqGrnIJjf-43" value="i &amp;lt; baris1" style="rhombus;whiteSpace=wrap;html=1;" parent="1" vertex="1">
          <mxGeometry x="372" y="950" width="83" height="70" as="geometry" />
        </mxCell>
        <mxCell id="ke5M0Iijm5WjqGrnIJjf-52" value="" style="edgeStyle=orthogonalEdgeStyle;rounded=0;orthogonalLoop=1;jettySize=auto;html=1;" parent="1" source="ke5M0Iijm5WjqGrnIJjf-44" target="ke5M0Iijm5WjqGrnIJjf-45" edge="1">
          <mxGeometry relative="1" as="geometry" />
        </mxCell>
        <mxCell id="ke5M0Iijm5WjqGrnIJjf-44" value="j = 0" style="rounded=0;whiteSpace=wrap;html=1;" parent="1" vertex="1">
          <mxGeometry x="379" y="1040" width="70" height="30" as="geometry" />
        </mxCell>
        <mxCell id="ke5M0Iijm5WjqGrnIJjf-54" value="" style="edgeStyle=orthogonalEdgeStyle;rounded=0;orthogonalLoop=1;jettySize=auto;html=1;" parent="1" source="ke5M0Iijm5WjqGrnIJjf-45" target="ke5M0Iijm5WjqGrnIJjf-53" edge="1">
          <mxGeometry relative="1" as="geometry" />
        </mxCell>
        <mxCell id="HW7N_w8-_M8KDKrPppuq-5" value="" style="edgeStyle=orthogonalEdgeStyle;rounded=0;orthogonalLoop=1;jettySize=auto;html=1;entryX=0.5;entryY=1;entryDx=0;entryDy=0;" edge="1" parent="1" source="ke5M0Iijm5WjqGrnIJjf-45" target="HW7N_w8-_M8KDKrPppuq-6">
          <mxGeometry relative="1" as="geometry">
            <mxPoint x="310.5" y="1134" as="targetPoint" />
          </mxGeometry>
        </mxCell>
        <mxCell id="ke5M0Iijm5WjqGrnIJjf-45" value="j &amp;lt; kolom2" style="rhombus;whiteSpace=wrap;html=1;" parent="1" vertex="1">
          <mxGeometry x="372" y="1099" width="83" height="70" as="geometry" />
        </mxCell>
        <mxCell id="HW7N_w8-_M8KDKrPppuq-2" value="" style="edgeStyle=orthogonalEdgeStyle;rounded=0;orthogonalLoop=1;jettySize=auto;html=1;entryX=0.5;entryY=1;entryDx=0;entryDy=0;" edge="1" parent="1" source="ke5M0Iijm5WjqGrnIJjf-53" target="-meEB2LqG_7epDKiAt6J-3">
          <mxGeometry relative="1" as="geometry">
            <mxPoint x="631" y="1215" as="targetPoint" />
          </mxGeometry>
        </mxCell>
        <mxCell id="ke5M0Iijm5WjqGrnIJjf-53" value="print hasil[i][j] + &quot; &quot;" style="shape=parallelogram;perimeter=parallelogramPerimeter;whiteSpace=wrap;html=1;fixedSize=1;" parent="1" vertex="1">
          <mxGeometry x="317" y="1200" width="196" height="30" as="geometry" />
        </mxCell>
        <mxCell id="HW7N_w8-_M8KDKrPppuq-3" value="" style="edgeStyle=orthogonalEdgeStyle;rounded=0;orthogonalLoop=1;jettySize=auto;html=1;" edge="1" parent="1" source="-meEB2LqG_7epDKiAt6J-3" target="ke5M0Iijm5WjqGrnIJjf-45">
          <mxGeometry relative="1" as="geometry" />
        </mxCell>
        <mxCell id="-meEB2LqG_7epDKiAt6J-3" value="j++" style="rounded=0;whiteSpace=wrap;html=1;" vertex="1" parent="1">
          <mxGeometry x="550" y="1119" width="70" height="30" as="geometry" />
        </mxCell>
        <mxCell id="HW7N_w8-_M8KDKrPppuq-7" value="" style="edgeStyle=orthogonalEdgeStyle;rounded=0;orthogonalLoop=1;jettySize=auto;html=1;" edge="1" parent="1" source="HW7N_w8-_M8KDKrPppuq-6" target="ke5M0Iijm5WjqGrnIJjf-43">
          <mxGeometry relative="1" as="geometry" />
        </mxCell>
        <mxCell id="HW7N_w8-_M8KDKrPppuq-6" value="j++" style="rounded=0;whiteSpace=wrap;html=1;" vertex="1" parent="1">
          <mxGeometry x="230" y="970" width="70" height="30" as="geometry" />
        </mxCell>
        <mxCell id="HW7N_w8-_M8KDKrPppuq-8" value="T" style="text;html=1;align=center;verticalAlign=middle;whiteSpace=wrap;rounded=0;" vertex="1" parent="1">
          <mxGeometry x="400" y="370" width="60" height="30" as="geometry" />
        </mxCell>
        <mxCell id="HW7N_w8-_M8KDKrPppuq-9" value="F" style="text;html=1;align=center;verticalAlign=middle;whiteSpace=wrap;rounded=0;" vertex="1" parent="1">
          <mxGeometry x="332" y="300" width="60" height="30" as="geometry" />
        </mxCell>
        <mxCell id="HW7N_w8-_M8KDKrPppuq-10" value="T" style="text;html=1;align=center;verticalAlign=middle;whiteSpace=wrap;rounded=0;" vertex="1" parent="1">
          <mxGeometry x="400" y="720" width="60" height="30" as="geometry" />
        </mxCell>
        <mxCell id="HW7N_w8-_M8KDKrPppuq-11" value="T" style="text;html=1;align=center;verticalAlign=middle;whiteSpace=wrap;rounded=0;" vertex="1" parent="1">
          <mxGeometry x="395" y="550" width="60" height="30" as="geometry" />
        </mxCell>
        <mxCell id="HW7N_w8-_M8KDKrPppuq-12" value="F" style="text;html=1;align=center;verticalAlign=middle;whiteSpace=wrap;rounded=0;" vertex="1" parent="1">
          <mxGeometry x="323" y="660" width="60" height="30" as="geometry" />
        </mxCell>
        <mxCell id="HW7N_w8-_M8KDKrPppuq-13" value="F" style="text;html=1;align=center;verticalAlign=middle;whiteSpace=wrap;rounded=0;" vertex="1" parent="1">
          <mxGeometry x="436" y="480" width="60" height="30" as="geometry" />
        </mxCell>
        <mxCell id="HW7N_w8-_M8KDKrPppuq-14" value="T" style="text;html=1;align=center;verticalAlign=middle;whiteSpace=wrap;rounded=0;" vertex="1" parent="1">
          <mxGeometry x="400" y="1010" width="60" height="30" as="geometry" />
        </mxCell>
        <mxCell id="HW7N_w8-_M8KDKrPppuq-15" value="T" style="text;html=1;align=center;verticalAlign=middle;whiteSpace=wrap;rounded=0;" vertex="1" parent="1">
          <mxGeometry x="400" y="1160" width="60" height="30" as="geometry" />
        </mxCell>
        <mxCell id="HW7N_w8-_M8KDKrPppuq-16" value="F" style="text;html=1;align=center;verticalAlign=middle;whiteSpace=wrap;rounded=0;" vertex="1" parent="1">
          <mxGeometry x="316" y="1110" width="60" height="30" as="geometry" />
        </mxCell>
        <mxCell id="HW7N_w8-_M8KDKrPppuq-19" value="return void" style="ellipse;whiteSpace=wrap;html=1;" vertex="1" parent="1">
          <mxGeometry x="324.5" y="1270" width="181" height="50" as="geometry" />
        </mxCell>
        <mxCell id="HW7N_w8-_M8KDKrPppuq-20" value="F" style="text;html=1;align=center;verticalAlign=middle;whiteSpace=wrap;rounded=0;" vertex="1" parent="1">
          <mxGeometry x="453" y="960" width="60" height="30" as="geometry" />
        </mxCell>
      </root>
    </mxGraphModel>
  </diagram>
  <diagram id="c7de-3rSovsmYz5SsLip" name="kurangMatrix">
    <mxGraphModel dx="522" dy="523" grid="1" gridSize="10" guides="1" tooltips="1" connect="1" arrows="1" fold="1" page="1" pageScale="1" pageWidth="827" pageHeight="1169" math="0" shadow="0">
      <root>
        <mxCell id="0" />
        <mxCell id="1" parent="0" />
        <mxCell id="WJr2Ss60GyH_Tsw3FPzx-1" value="" style="group" parent="1" vertex="1" connectable="0">
          <mxGeometry x="50" y="50" width="290" height="730" as="geometry" />
        </mxCell>
        <mxCell id="WJr2Ss60GyH_Tsw3FPzx-2" value="" style="edgeStyle=orthogonalEdgeStyle;rounded=0;orthogonalLoop=1;jettySize=auto;html=1;" parent="WJr2Ss60GyH_Tsw3FPzx-1" source="WJr2Ss60GyH_Tsw3FPzx-3" edge="1">
          <mxGeometry relative="1" as="geometry">
            <mxPoint x="126.875" y="63.636363636363626" as="targetPoint" />
          </mxGeometry>
        </mxCell>
        <mxCell id="WJr2Ss60GyH_Tsw3FPzx-3" value="kurangMatrix()" style="ellipse;whiteSpace=wrap;html=1;" parent="WJr2Ss60GyH_Tsw3FPzx-1" vertex="1">
          <mxGeometry x="81.03999999999999" y="-10" width="91.04" height="40" as="geometry" />
        </mxCell>
        <mxCell id="WJr2Ss60GyH_Tsw3FPzx-4" value="" style="edgeStyle=orthogonalEdgeStyle;rounded=0;orthogonalLoop=1;jettySize=auto;html=1;" parent="WJr2Ss60GyH_Tsw3FPzx-1" target="WJr2Ss60GyH_Tsw3FPzx-7" edge="1">
          <mxGeometry relative="1" as="geometry">
            <mxPoint x="126.875" y="106.06060606060603" as="sourcePoint" />
          </mxGeometry>
        </mxCell>
        <mxCell id="WJr2Ss60GyH_Tsw3FPzx-5" value="&lt;div&gt;int baris = matriks1.length;&lt;/div&gt;&lt;div&gt;&lt;span style=&quot;background-color: initial;&quot;&gt;int kolom = matriks1[0].length;&lt;/span&gt;&lt;/div&gt;&lt;div&gt;&lt;span style=&quot;background-color: initial;&quot;&gt;int[][] hasil = new int[baris][kolom];&lt;/span&gt;&lt;/div&gt;" style="shape=hexagon;perimeter=hexagonPerimeter2;whiteSpace=wrap;html=1;fixedSize=1;" parent="WJr2Ss60GyH_Tsw3FPzx-1" vertex="1">
          <mxGeometry x="10.670000000000002" y="63.64" width="232.4" height="42.42" as="geometry" />
        </mxCell>
        <mxCell id="WJr2Ss60GyH_Tsw3FPzx-6" value="" style="edgeStyle=orthogonalEdgeStyle;rounded=0;orthogonalLoop=1;jettySize=auto;html=1;" parent="WJr2Ss60GyH_Tsw3FPzx-1" source="WJr2Ss60GyH_Tsw3FPzx-7" target="WJr2Ss60GyH_Tsw3FPzx-10" edge="1">
          <mxGeometry relative="1" as="geometry" />
        </mxCell>
        <mxCell id="WJr2Ss60GyH_Tsw3FPzx-7" value="i = 0" style="whiteSpace=wrap;html=1;" parent="WJr2Ss60GyH_Tsw3FPzx-1" vertex="1">
          <mxGeometry x="107.1875" y="141.4141414141414" width="39.375" height="21.21212121212121" as="geometry" />
        </mxCell>
        <mxCell id="WJr2Ss60GyH_Tsw3FPzx-8" value="" style="edgeStyle=orthogonalEdgeStyle;rounded=0;orthogonalLoop=1;jettySize=auto;html=1;" parent="WJr2Ss60GyH_Tsw3FPzx-1" source="WJr2Ss60GyH_Tsw3FPzx-10" target="WJr2Ss60GyH_Tsw3FPzx-12" edge="1">
          <mxGeometry relative="1" as="geometry" />
        </mxCell>
        <mxCell id="WJr2Ss60GyH_Tsw3FPzx-9" value="" style="edgeStyle=orthogonalEdgeStyle;rounded=0;orthogonalLoop=1;jettySize=auto;html=1;entryX=1;entryY=0.5;entryDx=0;entryDy=0;" parent="WJr2Ss60GyH_Tsw3FPzx-1" source="WJr2Ss60GyH_Tsw3FPzx-10" target="WJr2Ss60GyH_Tsw3FPzx-26" edge="1">
          <mxGeometry relative="1" as="geometry">
            <mxPoint x="367.5" y="473.7373737373738" as="targetPoint" />
            <Array as="points">
              <mxPoint x="280" y="219.19191919191917" />
              <mxPoint x="280" y="516.1616161616162" />
            </Array>
          </mxGeometry>
        </mxCell>
        <mxCell id="WJr2Ss60GyH_Tsw3FPzx-10" value="i &amp;lt; baris" style="rhombus;whiteSpace=wrap;html=1;" parent="WJr2Ss60GyH_Tsw3FPzx-1" vertex="1">
          <mxGeometry x="81.66666666666667" y="190.90909090909088" width="90.41666666666667" height="56.56565656565655" as="geometry" />
        </mxCell>
        <mxCell id="WJr2Ss60GyH_Tsw3FPzx-11" value="" style="edgeStyle=orthogonalEdgeStyle;rounded=0;orthogonalLoop=1;jettySize=auto;html=1;" parent="WJr2Ss60GyH_Tsw3FPzx-1" source="WJr2Ss60GyH_Tsw3FPzx-12" target="WJr2Ss60GyH_Tsw3FPzx-15" edge="1">
          <mxGeometry relative="1" as="geometry" />
        </mxCell>
        <mxCell id="WJr2Ss60GyH_Tsw3FPzx-12" value="j = 0" style="whiteSpace=wrap;html=1;" parent="WJr2Ss60GyH_Tsw3FPzx-1" vertex="1">
          <mxGeometry x="107.1875" y="275.75757575757575" width="39.375" height="21.21212121212121" as="geometry" />
        </mxCell>
        <mxCell id="WJr2Ss60GyH_Tsw3FPzx-13" value="" style="edgeStyle=orthogonalEdgeStyle;rounded=0;orthogonalLoop=1;jettySize=auto;html=1;" parent="WJr2Ss60GyH_Tsw3FPzx-1" source="WJr2Ss60GyH_Tsw3FPzx-15" edge="1">
          <mxGeometry relative="1" as="geometry">
            <mxPoint x="126.875" y="424.24242424242414" as="targetPoint" />
          </mxGeometry>
        </mxCell>
        <mxCell id="WJr2Ss60GyH_Tsw3FPzx-14" value="" style="edgeStyle=orthogonalEdgeStyle;rounded=0;orthogonalLoop=1;jettySize=auto;html=1;entryX=0.5;entryY=1;entryDx=0;entryDy=0;" parent="WJr2Ss60GyH_Tsw3FPzx-1" source="WJr2Ss60GyH_Tsw3FPzx-15" target="WJr2Ss60GyH_Tsw3FPzx-20" edge="1">
          <mxGeometry relative="1" as="geometry">
            <mxPoint x="35" y="360.60606060606057" as="targetPoint" />
          </mxGeometry>
        </mxCell>
        <mxCell id="WJr2Ss60GyH_Tsw3FPzx-15" value="j &amp;lt; kolom" style="rhombus;whiteSpace=wrap;html=1;" parent="WJr2Ss60GyH_Tsw3FPzx-1" vertex="1">
          <mxGeometry x="81.66666666666667" y="332.3232323232323" width="90.41666666666667" height="56.56565656565655" as="geometry" />
        </mxCell>
        <mxCell id="WJr2Ss60GyH_Tsw3FPzx-16" value="hasil[i][j] = matriks1[i][j] - matriks2[i][j];" style="whiteSpace=wrap;html=1;" parent="WJr2Ss60GyH_Tsw3FPzx-1" vertex="1">
          <mxGeometry x="31.090000000000003" y="424.24" width="206.15" height="42.42" as="geometry" />
        </mxCell>
        <mxCell id="WJr2Ss60GyH_Tsw3FPzx-17" value="" style="edgeStyle=orthogonalEdgeStyle;rounded=0;orthogonalLoop=1;jettySize=auto;html=1;" parent="WJr2Ss60GyH_Tsw3FPzx-1" source="WJr2Ss60GyH_Tsw3FPzx-18" target="WJr2Ss60GyH_Tsw3FPzx-15" edge="1">
          <mxGeometry relative="1" as="geometry" />
        </mxCell>
        <mxCell id="WJr2Ss60GyH_Tsw3FPzx-18" value="j++" style="whiteSpace=wrap;html=1;" parent="WJr2Ss60GyH_Tsw3FPzx-1" vertex="1">
          <mxGeometry x="230.6266666666667" y="350" width="39.375" height="21.21212121212121" as="geometry" />
        </mxCell>
        <mxCell id="WJr2Ss60GyH_Tsw3FPzx-19" value="" style="edgeStyle=orthogonalEdgeStyle;rounded=0;orthogonalLoop=1;jettySize=auto;html=1;" parent="WJr2Ss60GyH_Tsw3FPzx-1" source="WJr2Ss60GyH_Tsw3FPzx-20" target="WJr2Ss60GyH_Tsw3FPzx-10" edge="1">
          <mxGeometry relative="1" as="geometry" />
        </mxCell>
        <mxCell id="WJr2Ss60GyH_Tsw3FPzx-20" value="i++" style="whiteSpace=wrap;html=1;" parent="WJr2Ss60GyH_Tsw3FPzx-1" vertex="1">
          <mxGeometry y="208.58585858585857" width="39.375" height="21.21212121212121" as="geometry" />
        </mxCell>
        <mxCell id="WJr2Ss60GyH_Tsw3FPzx-21" value="T" style="text;html=1;align=center;verticalAlign=middle;whiteSpace=wrap;rounded=0;" parent="WJr2Ss60GyH_Tsw3FPzx-1" vertex="1">
          <mxGeometry x="122.5" y="247.47474747474746" width="35" height="21.21212121212121" as="geometry" />
        </mxCell>
        <mxCell id="WJr2Ss60GyH_Tsw3FPzx-22" value="T" style="text;html=1;align=center;verticalAlign=middle;whiteSpace=wrap;rounded=0;" parent="WJr2Ss60GyH_Tsw3FPzx-1" vertex="1">
          <mxGeometry x="116.66666666666667" y="388.88888888888886" width="35" height="21.21212121212121" as="geometry" />
        </mxCell>
        <mxCell id="WJr2Ss60GyH_Tsw3FPzx-23" value="F" style="text;html=1;align=center;verticalAlign=middle;whiteSpace=wrap;rounded=0;" parent="WJr2Ss60GyH_Tsw3FPzx-1" vertex="1">
          <mxGeometry x="52.5" y="339.3939393939394" width="35" height="21.21212121212121" as="geometry" />
        </mxCell>
        <mxCell id="WJr2Ss60GyH_Tsw3FPzx-24" value="F" style="text;html=1;align=center;verticalAlign=middle;whiteSpace=wrap;rounded=0;" parent="WJr2Ss60GyH_Tsw3FPzx-1" vertex="1">
          <mxGeometry x="177.33333333333334" y="190.90909090909088" width="35" height="21.21212121212121" as="geometry" />
        </mxCell>
        <mxCell id="WJr2Ss60GyH_Tsw3FPzx-25" value="" style="edgeStyle=orthogonalEdgeStyle;rounded=0;orthogonalLoop=1;jettySize=auto;html=1;entryX=0.5;entryY=0;entryDx=0;entryDy=0;" parent="WJr2Ss60GyH_Tsw3FPzx-1" source="WJr2Ss60GyH_Tsw3FPzx-26" target="WJr2Ss60GyH_Tsw3FPzx-28" edge="1">
          <mxGeometry relative="1" as="geometry">
            <mxPoint x="126.51041666666667" y="586.8686868686868" as="targetPoint" />
          </mxGeometry>
        </mxCell>
        <mxCell id="WJr2Ss60GyH_Tsw3FPzx-26" value="print &quot;Hasil pertambahan matriks&quot;" style="shape=parallelogram;perimeter=parallelogramPerimeter;whiteSpace=wrap;html=1;fixedSize=1;" parent="WJr2Ss60GyH_Tsw3FPzx-1" vertex="1">
          <mxGeometry x="23.13" y="490" width="207.5" height="55.05" as="geometry" />
        </mxCell>
        <mxCell id="WJr2Ss60GyH_Tsw3FPzx-27" value="" style="edgeStyle=orthogonalEdgeStyle;rounded=0;orthogonalLoop=1;jettySize=auto;html=1;" parent="WJr2Ss60GyH_Tsw3FPzx-1" source="WJr2Ss60GyH_Tsw3FPzx-28" target="WJr2Ss60GyH_Tsw3FPzx-29" edge="1">
          <mxGeometry relative="1" as="geometry" />
        </mxCell>
        <mxCell id="WJr2Ss60GyH_Tsw3FPzx-28" value="i = 0" style="whiteSpace=wrap;html=1;" parent="WJr2Ss60GyH_Tsw3FPzx-1" vertex="1">
          <mxGeometry x="107.1875" y="579.7979797979797" width="39.375" height="21.21212121212121" as="geometry" />
        </mxCell>
        <mxCell id="WJr2Ss60GyH_Tsw3FPzx-29" value="i &amp;lt; baris" style="rhombus;whiteSpace=wrap;html=1;" parent="WJr2Ss60GyH_Tsw3FPzx-1" vertex="1">
          <mxGeometry x="81.66666666666667" y="643.4343434343434" width="90.41666666666667" height="56.56565656565655" as="geometry" />
        </mxCell>
        <mxCell id="WJr2Ss60GyH_Tsw3FPzx-30" value="" style="edgeStyle=orthogonalEdgeStyle;rounded=0;orthogonalLoop=1;jettySize=auto;html=1;entryX=0.5;entryY=1;entryDx=0;entryDy=0;exitX=1;exitY=0.5;exitDx=0;exitDy=0;" parent="WJr2Ss60GyH_Tsw3FPzx-1" source="WJr2Ss60GyH_Tsw3FPzx-16" target="WJr2Ss60GyH_Tsw3FPzx-18" edge="1">
          <mxGeometry relative="1" as="geometry">
            <mxPoint x="360.31500000000005" y="445.5185185185185" as="targetPoint" />
            <Array as="points">
              <mxPoint x="250" y="445" />
            </Array>
          </mxGeometry>
        </mxCell>
        <mxCell id="WJr2Ss60GyH_Tsw3FPzx-31" value="T" style="text;html=1;align=center;verticalAlign=middle;whiteSpace=wrap;rounded=0;" parent="WJr2Ss60GyH_Tsw3FPzx-1" vertex="1">
          <mxGeometry x="129.79666666666668" y="699.9988888888888" width="35" height="21.21212121212121" as="geometry" />
        </mxCell>
        <mxCell id="WJr2Ss60GyH_Tsw3FPzx-32" value="" style="edgeStyle=orthogonalEdgeStyle;rounded=0;orthogonalLoop=1;jettySize=auto;html=1;entryX=0;entryY=0.5;entryDx=0;entryDy=0;" parent="WJr2Ss60GyH_Tsw3FPzx-1" source="WJr2Ss60GyH_Tsw3FPzx-33" target="WJr2Ss60GyH_Tsw3FPzx-29" edge="1">
          <mxGeometry relative="1" as="geometry" />
        </mxCell>
        <mxCell id="WJr2Ss60GyH_Tsw3FPzx-33" value="i++" style="rounded=0;whiteSpace=wrap;html=1;" parent="WJr2Ss60GyH_Tsw3FPzx-1" vertex="1">
          <mxGeometry x="-15.150000000000006" y="661.72" width="38.28" height="20" as="geometry" />
        </mxCell>
        <mxCell id="WJr2Ss60GyH_Tsw3FPzx-34" value="F" style="text;html=1;align=center;verticalAlign=middle;whiteSpace=wrap;rounded=0;" parent="WJr2Ss60GyH_Tsw3FPzx-1" vertex="1">
          <mxGeometry x="189.99666666666667" y="643.4388888888889" width="35" height="21.21212121212121" as="geometry" />
        </mxCell>
        <mxCell id="WJr2Ss60GyH_Tsw3FPzx-35" value="" style="edgeStyle=orthogonalEdgeStyle;rounded=0;orthogonalLoop=1;jettySize=auto;html=1;" parent="1" source="WJr2Ss60GyH_Tsw3FPzx-29" edge="1">
          <mxGeometry relative="1" as="geometry">
            <mxPoint x="177" y="800" as="targetPoint" />
          </mxGeometry>
        </mxCell>
        <mxCell id="WJr2Ss60GyH_Tsw3FPzx-36" value="" style="edgeStyle=orthogonalEdgeStyle;rounded=0;orthogonalLoop=1;jettySize=auto;html=1;" parent="1" source="WJr2Ss60GyH_Tsw3FPzx-37" target="WJr2Ss60GyH_Tsw3FPzx-40" edge="1">
          <mxGeometry relative="1" as="geometry" />
        </mxCell>
        <mxCell id="WJr2Ss60GyH_Tsw3FPzx-37" value="j = 0" style="rounded=0;whiteSpace=wrap;html=1;" parent="1" vertex="1">
          <mxGeometry x="158.28" y="800" width="38.28" height="20" as="geometry" />
        </mxCell>
        <mxCell id="WJr2Ss60GyH_Tsw3FPzx-38" value="" style="edgeStyle=orthogonalEdgeStyle;rounded=0;orthogonalLoop=1;jettySize=auto;html=1;" parent="1" source="WJr2Ss60GyH_Tsw3FPzx-40" target="WJr2Ss60GyH_Tsw3FPzx-42" edge="1">
          <mxGeometry relative="1" as="geometry" />
        </mxCell>
        <mxCell id="WJr2Ss60GyH_Tsw3FPzx-39" value="" style="edgeStyle=orthogonalEdgeStyle;rounded=0;orthogonalLoop=1;jettySize=auto;html=1;entryX=0.5;entryY=1;entryDx=0;entryDy=0;" parent="1" source="WJr2Ss60GyH_Tsw3FPzx-40" target="WJr2Ss60GyH_Tsw3FPzx-33" edge="1">
          <mxGeometry relative="1" as="geometry">
            <mxPoint x="47.42000000000007" y="888.2849999999999" as="targetPoint" />
          </mxGeometry>
        </mxCell>
        <mxCell id="WJr2Ss60GyH_Tsw3FPzx-40" value="j &amp;lt; kolom" style="rhombus;whiteSpace=wrap;html=1;rounded=0;" parent="1" vertex="1">
          <mxGeometry x="127.42" y="860" width="100" height="56.57" as="geometry" />
        </mxCell>
        <mxCell id="WJr2Ss60GyH_Tsw3FPzx-41" value="" style="edgeStyle=orthogonalEdgeStyle;rounded=0;orthogonalLoop=1;jettySize=auto;html=1;" parent="1" source="WJr2Ss60GyH_Tsw3FPzx-42" edge="1">
          <mxGeometry relative="1" as="geometry">
            <mxPoint x="320" y="900" as="targetPoint" />
          </mxGeometry>
        </mxCell>
        <mxCell id="WJr2Ss60GyH_Tsw3FPzx-42" value="print hasil[i][j] + &quot; &quot;" style="shape=parallelogram;perimeter=parallelogramPerimeter;whiteSpace=wrap;html=1;fixedSize=1;rounded=0;" parent="1" vertex="1">
          <mxGeometry x="91.13" y="970" width="172.58" height="45.14" as="geometry" />
        </mxCell>
        <mxCell id="WJr2Ss60GyH_Tsw3FPzx-43" value="T" style="text;html=1;align=center;verticalAlign=middle;whiteSpace=wrap;rounded=0;" parent="1" vertex="1">
          <mxGeometry x="177.49666666666667" y="916.5688888888889" width="35" height="21.21212121212121" as="geometry" />
        </mxCell>
        <mxCell id="WJr2Ss60GyH_Tsw3FPzx-44" value="return void" style="ellipse;whiteSpace=wrap;html=1;" parent="1" vertex="1">
          <mxGeometry x="127.41999999999999" y="1040" width="104" height="58.28" as="geometry" />
        </mxCell>
        <mxCell id="WJr2Ss60GyH_Tsw3FPzx-45" value="" style="edgeStyle=orthogonalEdgeStyle;rounded=0;orthogonalLoop=1;jettySize=auto;html=1;entryX=1;entryY=0.5;entryDx=0;entryDy=0;" parent="1" source="WJr2Ss60GyH_Tsw3FPzx-46" target="WJr2Ss60GyH_Tsw3FPzx-40" edge="1">
          <mxGeometry relative="1" as="geometry">
            <mxPoint x="230" y="890" as="targetPoint" />
          </mxGeometry>
        </mxCell>
        <mxCell id="WJr2Ss60GyH_Tsw3FPzx-46" value="j++" style="rounded=0;whiteSpace=wrap;html=1;" parent="1" vertex="1">
          <mxGeometry x="301.72" y="878.28" width="38.28" height="20" as="geometry" />
        </mxCell>
        <mxCell id="WJr2Ss60GyH_Tsw3FPzx-47" value="F" style="text;html=1;align=center;verticalAlign=middle;whiteSpace=wrap;rounded=0;" parent="1" vertex="1">
          <mxGeometry x="96.66666666666666" y="859.9988888888888" width="35" height="21.21212121212121" as="geometry" />
        </mxCell>
        <mxCell id="WJr2Ss60GyH_Tsw3FPzx-48" value="" style="edgeStyle=orthogonalEdgeStyle;rounded=0;orthogonalLoop=1;jettySize=auto;html=1;entryX=1;entryY=0.5;entryDx=0;entryDy=0;" parent="1" source="WJr2Ss60GyH_Tsw3FPzx-29" target="WJr2Ss60GyH_Tsw3FPzx-44" edge="1">
          <mxGeometry relative="1" as="geometry">
            <mxPoint x="410" y="1070" as="targetPoint" />
            <Array as="points">
              <mxPoint x="360" y="722" />
              <mxPoint x="360" y="1069" />
            </Array>
          </mxGeometry>
        </mxCell>
      </root>
    </mxGraphModel>
  </diagram>
</mxfile>
